<?xml version="1.0" standalone="no"?>
<!DOCTYPE svg PUBLIC "-//W3C//DTD SVG 20010904//EN"
 "http://www.w3.org/TR/2001/REC-SVG-20010904/DTD/svg10.dtd">
<svg version="1.0" xmlns="http://www.w3.org/2000/svg"
 width="794.000000pt" height="794.000000pt" viewBox="0 0 794.000000 794.000000"
 preserveAspectRatio="xMidYMid meet">
<metadata>
Created by potrace 1.14, written by Peter Selinger 2001-2017
</metadata>
<g transform="translate(0.000000,794.000000) scale(0.100000,-0.100000)"
fill="#000000" stroke="none">
<path d="M4030 7160 l0 -707 108 -38 c59 -21 132 -49 162 -63 234 -109 414
-346 526 -692 33 -103 66 -166 83 -156 3 2 53 7 111 11 58 3 128 8 155 10 28
2 102 7 165 10 63 4 135 8 160 10 25 2 90 6 145 9 120 8 225 15 320 21 39 3
113 7 165 10 52 3 129 7 170 10 256 16 401 25 527 30 62 3 124 10 137 15 72
27 64 125 -41 490 -118 414 -293 728 -544 982 -110 110 -129 127 -224 198
-226 170 -499 299 -814 386 -69 19 -135 36 -146 38 -11 2 -38 9 -60 14 -22 6
-60 14 -85 17 -25 3 -52 8 -60 10 -15 4 -33 7 -120 20 -25 4 -56 8 -70 10 -14
2 -50 6 -80 10 -30 3 -71 7 -90 10 -38 5 -123 11 -265 20 -49 2 -126 7 -170
10 -44 4 -99 8 -122 9 l-43 3 0 -707z"/>
<path d="M3637 7854 c-2 -2 -76 -7 -277 -19 -79 -5 -200 -15 -237 -20 -16 -2
-57 -6 -93 -10 -36 -4 -68 -9 -71 -10 -3 -2 -25 -6 -50 -9 -24 -3 -69 -10 -99
-17 -30 -6 -68 -13 -84 -16 -22 -3 -185 -44 -316 -77 -53 -14 -220 -75 -301
-111 -628 -275 -1101 -800 -1268 -1405 -26 -96 -33 -132 -52 -255 -16 -112
-18 -323 -4 -446 60 -501 314 -954 726 -1291 296 -242 723 -453 1274 -630 116
-37 390 -118 435 -128 19 -5 114 -29 210 -54 96 -26 184 -48 196 -50 32 -6
292 -75 349 -93 513 -157 781 -287 894 -435 57 -73 53 -68 79 -115 117 -214
98 -504 -46 -703 -48 -66 -171 -179 -240 -220 -146 -86 -284 -125 -524 -146
-36 -3 -75 -7 -85 -8 -17 -3 -18 -34 -21 -744 l-2 -741 162 4 c90 3 181 7 203
9 22 2 67 7 100 10 68 7 205 25 250 32 17 3 41 7 55 9 28 4 49 8 200 35 243
43 460 102 650 177 120 47 364 165 391 189 8 8 19 14 23 14 14 0 201 129 292
202 228 183 408 385 564 633 108 173 229 456 280 655 24 91 25 97 40 180 6 30
12 65 14 77 21 107 29 458 14 593 -38 325 -139 610 -315 883 -91 142 -161 227
-292 357 -192 190 -372 315 -656 455 -308 152 -553 244 -960 361 -104 30 -203
58 -220 64 -31 10 -752 190 -840 210 -27 7 -57 13 -65 15 -119 27 -344 82
-412 101 -427 119 -575 263 -563 548 8 209 103 355 291 450 85 42 213 81 321
96 43 6 94 14 113 18 l35 8 0 684 0 683 -33 2 c-18 1 -33 1 -35 -1z"/>
<path d="M2287 2834 c-1 -1 -52 -5 -113 -9 -61 -3 -138 -8 -170 -11 -32 -2
-94 -6 -136 -9 -90 -5 -227 -14 -313 -20 -33 -2 -100 -7 -150 -10 -49 -3 -117
-8 -151 -10 -33 -3 -108 -7 -165 -11 -57 -3 -129 -7 -159 -9 -30 -2 -109 -7
-175 -10 -66 -4 -139 -8 -163 -10 -24 -1 -49 -8 -55 -14 -18 -18 -14 -154 9
-321 34 -241 142 -570 267 -815 71 -138 236 -407 267 -435 3 -3 34 -41 70 -85
121 -151 287 -315 390 -385 19 -13 37 -27 40 -30 30 -34 259 -156 395 -210
266 -107 637 -207 900 -245 22 -3 47 -7 55 -10 8 -2 42 -7 75 -11 33 -3 69 -8
80 -9 33 -5 112 -15 163 -20 26 -3 65 -7 87 -10 103 -11 178 -17 272 -20 l102
-3 -5 327 c-3 179 -7 423 -9 541 -2 118 -4 310 -5 427 l-1 211 -82 22 c-209
55 -343 129 -487 270 -107 105 -145 151 -209 254 -98 157 -179 380 -197 542
-8 70 -19 97 -48 118 -25 19 -42 21 -202 22 -96 0 -175 -1 -177 -2z"/>
</g>
</svg>
